{
	"asset":{
		"generator":"Khronos glTF Blender I/O v4.3.47",
		"version":"2.0"
	},
	"extensionsUsed":[
		"KHR_materials_specular"
	],
	"scene":0,
	"scenes":[
		{
			"name":"Scene",
			"nodes":[
				0
			]
		}
	],
	"nodes":[
		{
			"mesh":0,
			"name":"12d61fc7-0a54-45d5-bcbe-d41f851ccef9",
			"rotation":[
				0.7071068286895752,
				0,
				0,
				0.7071068286895752
			]
		}
	],
	"materials":[
		{
			"doubleSided":true,
			"extensions":{
				"KHR_materials_specular":{
					"specularFactor":0.6600000262260437
				}
			},
			"name":"_Charcoal_",
			"pbrMetallicRoughness":{
				"baseColorFactor":[
					0.137254998087883,
					0.137254998087883,
					0.137254998087883,
					1
				],
				"metallicFactor":0
			}
		},
		{
			"doubleSided":true,
			"extensions":{
				"KHR_materials_specular":{
					"specularFactor":0.6600000262260437
				}
			},
			"name":"Color_007",
			"pbrMetallicRoughness":{
				"baseColorFactor":[
					0.22745099663734436,
					0.22745099663734436,
					0.22745099663734436,
					1
				],
				"metallicFactor":0
			}
		},
		{
			"doubleSided":true,
			"extensions":{
				"KHR_materials_specular":{
					"specularFactor":0.6600000262260437
				}
			},
			"name":"_",
			"pbrMetallicRoughness":{
				"baseColorFactor":[
					0.20000000298023224,
					0.20000000298023224,
					0.20000000298023224,
					1
				],
				"metallicFactor":0
			}
		},
		{
			"doubleSided":true,
			"extensions":{
				"KHR_materials_specular":{
					"specularFactor":0.6600000262260437
				}
			},
			"name":"FrontColor",
			"pbrMetallicRoughness":{
				"metallicFactor":0
			}
		},
		{
			"doubleSided":true,
			"extensions":{
				"KHR_materials_specular":{
					"specularFactor":0.6600000262260437
				}
			},
			"name":"Wood_Floor_Light",
			"pbrMetallicRoughness":{
				"baseColorTexture":{
					"index":0
				},
				"metallicFactor":0
			}
		},
		{
			"doubleSided":true,
			"extensions":{
				"KHR_materials_specular":{
					"specularFactor":0.6600000262260437
				}
			},
			"name":"Wood_Floor",
			"pbrMetallicRoughness":{
				"baseColorTexture":{
					"index":1
				},
				"metallicFactor":0
			}
		},
		{
			"alphaMode":"BLEND",
			"doubleSided":true,
			"extensions":{
				"KHR_materials_specular":{
					"specularFactor":0.6600000262260437
				}
			},
			"name":"Translucent_Glass_Blue",
			"pbrMetallicRoughness":{
				"baseColorFactor":[
					0.3921569883823395,
					0.5843139886856079,
					0.9294120073318481,
					0.5
				],
				"metallicFactor":0
			}
		},
		{
			"doubleSided":true,
			"extensions":{
				"KHR_materials_specular":{
					"specularFactor":0.6600000262260437
				}
			},
			"name":"Color_M08",
			"pbrMetallicRoughness":{
				"baseColorFactor":[
					0.11764699965715408,
					0.11764699965715408,
					0.11764699965715408,
					1
				],
				"metallicFactor":0
			}
		}
	],
	"meshes":[
		{
			"name":"12d61fc7-0a54-45d5-bcbe-d41f851ccef9",
			"primitives":[
				{
					"attributes":{
						"POSITION":0,
						"NORMAL":1,
						"TEXCOORD_0":2
					},
					"indices":3,
					"material":0
				},
				{
					"attributes":{
						"POSITION":4,
						"NORMAL":5,
						"TEXCOORD_0":6
					},
					"indices":7,
					"material":1
				},
				{
					"attributes":{
						"POSITION":8,
						"NORMAL":9,
						"TEXCOORD_0":10
					},
					"indices":11,
					"material":2
				},
				{
					"attributes":{
						"POSITION":12,
						"NORMAL":13,
						"TEXCOORD_0":14
					},
					"indices":15,
					"material":3
				},
				{
					"attributes":{
						"POSITION":16,
						"NORMAL":17,
						"TEXCOORD_0":18
					},
					"indices":19,
					"material":4
				},
				{
					"attributes":{
						"POSITION":20,
						"NORMAL":21,
						"TEXCOORD_0":22
					},
					"indices":23,
					"material":5
				},
				{
					"attributes":{
						"POSITION":24,
						"NORMAL":25,
						"TEXCOORD_0":26
					},
					"indices":27,
					"material":6
				},
				{
					"attributes":{
						"POSITION":28,
						"NORMAL":29,
						"TEXCOORD_0":30
					},
					"indices":31,
					"material":7
				}
			]
		}
	],
	"textures":[
		{
			"sampler":0,
			"source":0
		},
		{
			"sampler":0,
			"source":1
		}
	],
	"images":[
		{
			"mimeType":"image/png",
			"name":"Wood_Floor_Light",
			"uri":"Wood_Floor_Light.png"
		},
		{
			"mimeType":"image/png",
			"name":"Wood_Floor",
			"uri":"Wood_Floor.png"
		}
	],
	"accessors":[
		{
			"bufferView":0,
			"componentType":5126,
			"count":23262,
			"max":[
				7.766779899597168,
				-0.5496199727058411,
				-0.20000000298023224
			],
			"min":[
				0.7473530173301697,
				-10.160799980163574,
				-1.0116599798202515
			],
			"type":"VEC3"
		},
		{
			"bufferView":1,
			"componentType":5126,
			"count":23262,
			"type":"VEC3"
		},
		{
			"bufferView":2,
			"componentType":5126,
			"count":23262,
			"type":"VEC2"
		},
		{
			"bufferView":3,
			"componentType":5123,
			"count":34800,
			"type":"SCALAR"
		},
		{
			"bufferView":4,
			"componentType":5126,
			"count":8700,
			"max":[
				7.667049884796143,
				-0.5689250230789185,
				-0.7196109890937805
			],
			"min":[
				0.8317369818687439,
				-10.141500473022461,
				-1.1249200105667114
			],
			"type":"VEC3"
		},
		{
			"bufferView":5,
			"componentType":5126,
			"count":8700,
			"type":"VEC3"
		},
		{
			"bufferView":6,
			"componentType":5126,
			"count":8700,
			"type":"VEC2"
		},
		{
			"bufferView":7,
			"componentType":5123,
			"count":10788,
			"type":"SCALAR"
		},
		{
			"bufferView":8,
			"componentType":5126,
			"count":6786,
			"max":[
				7.701889991760254,
				-0.613415002822876,
				-0.5947170257568359
			],
			"min":[
				0.8121619820594788,
				-10.097000122070312,
				-0.7820249795913696
			],
			"type":"VEC3"
		},
		{
			"bufferView":9,
			"componentType":5126,
			"count":6786,
			"type":"VEC3"
		},
		{
			"bufferView":10,
			"componentType":5126,
			"count":6786,
			"type":"VEC2"
		},
		{
			"bufferView":11,
			"componentType":5123,
			"count":8178,
			"type":"SCALAR"
		},
		{
			"bufferView":12,
			"componentType":5126,
			"count":219,
			"max":[
				8.739999771118164,
				0.20000000298023224,
				0
			],
			"min":[
				-0.20000000298023224,
				-10.770000457763672,
				-3.700000047683716
			],
			"type":"VEC3"
		},
		{
			"bufferView":13,
			"componentType":5126,
			"count":219,
			"type":"VEC3"
		},
		{
			"bufferView":14,
			"componentType":5126,
			"count":219,
			"type":"VEC2"
		},
		{
			"bufferView":15,
			"componentType":5123,
			"count":546,
			"type":"SCALAR"
		},
		{
			"bufferView":16,
			"componentType":5126,
			"count":103,
			"max":[
				8.539999961853027,
				0,
				-0.20000000298023224
			],
			"min":[
				0,
				-10.569999694824219,
				-0.20000000298023224
			],
			"type":"VEC3"
		},
		{
			"bufferView":17,
			"componentType":5126,
			"count":103,
			"type":"VEC3"
		},
		{
			"bufferView":18,
			"componentType":5126,
			"count":103,
			"type":"VEC2"
		},
		{
			"bufferView":19,
			"componentType":5123,
			"count":306,
			"type":"SCALAR"
		},
		{
			"bufferView":20,
			"componentType":5126,
			"count":338,
			"max":[
				8.539999961853027,
				-0.47999998927116394,
				-0.20000000298023224
			],
			"min":[
				0,
				-9.694999694824219,
				-2.380000114440918
			],
			"type":"VEC3"
		},
		{
			"bufferView":21,
			"componentType":5126,
			"count":338,
			"type":"VEC3"
		},
		{
			"bufferView":22,
			"componentType":5126,
			"count":338,
			"type":"VEC2"
		},
		{
			"bufferView":23,
			"componentType":5123,
			"count":588,
			"type":"SCALAR"
		},
		{
			"bufferView":24,
			"componentType":5126,
			"count":44,
			"max":[
				6.96999979019165,
				-0.47999998927116394,
				-1.100000023841858
			],
			"min":[
				0.7200000286102295,
				-10.569999694824219,
				-2.859999895095825
			],
			"type":"VEC3"
		},
		{
			"bufferView":25,
			"componentType":5126,
			"count":44,
			"type":"VEC3"
		},
		{
			"bufferView":26,
			"componentType":5126,
			"count":44,
			"type":"VEC2"
		},
		{
			"bufferView":27,
			"componentType":5123,
			"count":66,
			"type":"SCALAR"
		},
		{
			"bufferView":28,
			"componentType":5126,
			"count":83,
			"max":[
				8.539999961853027,
				-1.1200000047683716,
				-1.059999942779541
			],
			"min":[
				0,
				-9.694999694824219,
				-1.1640000343322754
			],
			"type":"VEC3"
		},
		{
			"bufferView":29,
			"componentType":5126,
			"count":83,
			"type":"VEC3"
		},
		{
			"bufferView":30,
			"componentType":5126,
			"count":83,
			"type":"VEC2"
		},
		{
			"bufferView":31,
			"componentType":5123,
			"count":165,
			"type":"SCALAR"
		}
	],
	"bufferViews":[
		{
			"buffer":0,
			"byteLength":279144,
			"byteOffset":0,
			"target":34962
		},
		{
			"buffer":0,
			"byteLength":279144,
			"byteOffset":279144,
			"target":34962
		},
		{
			"buffer":0,
			"byteLength":186096,
			"byteOffset":558288,
			"target":34962
		},
		{
			"buffer":0,
			"byteLength":69600,
			"byteOffset":744384,
			"target":34963
		},
		{
			"buffer":0,
			"byteLength":104400,
			"byteOffset":813984,
			"target":34962
		},
		{
			"buffer":0,
			"byteLength":104400,
			"byteOffset":918384,
			"target":34962
		},
		{
			"buffer":0,
			"byteLength":69600,
			"byteOffset":1022784,
			"target":34962
		},
		{
			"buffer":0,
			"byteLength":21576,
			"byteOffset":1092384,
			"target":34963
		},
		{
			"buffer":0,
			"byteLength":81432,
			"byteOffset":1113960,
			"target":34962
		},
		{
			"buffer":0,
			"byteLength":81432,
			"byteOffset":1195392,
			"target":34962
		},
		{
			"buffer":0,
			"byteLength":54288,
			"byteOffset":1276824,
			"target":34962
		},
		{
			"buffer":0,
			"byteLength":16356,
			"byteOffset":1331112,
			"target":34963
		},
		{
			"buffer":0,
			"byteLength":2628,
			"byteOffset":1347468,
			"target":34962
		},
		{
			"buffer":0,
			"byteLength":2628,
			"byteOffset":1350096,
			"target":34962
		},
		{
			"buffer":0,
			"byteLength":1752,
			"byteOffset":1352724,
			"target":34962
		},
		{
			"buffer":0,
			"byteLength":1092,
			"byteOffset":1354476,
			"target":34963
		},
		{
			"buffer":0,
			"byteLength":1236,
			"byteOffset":1355568,
			"target":34962
		},
		{
			"buffer":0,
			"byteLength":1236,
			"byteOffset":1356804,
			"target":34962
		},
		{
			"buffer":0,
			"byteLength":824,
			"byteOffset":1358040,
			"target":34962
		},
		{
			"buffer":0,
			"byteLength":612,
			"byteOffset":1358864,
			"target":34963
		},
		{
			"buffer":0,
			"byteLength":4056,
			"byteOffset":1359476,
			"target":34962
		},
		{
			"buffer":0,
			"byteLength":4056,
			"byteOffset":1363532,
			"target":34962
		},
		{
			"buffer":0,
			"byteLength":2704,
			"byteOffset":1367588,
			"target":34962
		},
		{
			"buffer":0,
			"byteLength":1176,
			"byteOffset":1370292,
			"target":34963
		},
		{
			"buffer":0,
			"byteLength":528,
			"byteOffset":1371468,
			"target":34962
		},
		{
			"buffer":0,
			"byteLength":528,
			"byteOffset":1371996,
			"target":34962
		},
		{
			"buffer":0,
			"byteLength":352,
			"byteOffset":1372524,
			"target":34962
		},
		{
			"buffer":0,
			"byteLength":132,
			"byteOffset":1372876,
			"target":34963
		},
		{
			"buffer":0,
			"byteLength":996,
			"byteOffset":1373008,
			"target":34962
		},
		{
			"buffer":0,
			"byteLength":996,
			"byteOffset":1374004,
			"target":34962
		},
		{
			"buffer":0,
			"byteLength":664,
			"byteOffset":1375000,
			"target":34962
		},
		{
			"buffer":0,
			"byteLength":330,
			"byteOffset":1375664,
			"target":34963
		}
	],
	"samplers":[
		{
			"magFilter":9729,
			"minFilter":9987
		}
	],
	"buffers":[
		{
			"byteLength":1375996,
			"uri":"room.bin"
		}
	]
}
